<svg xmlns="http://www.w3.org/2000/svg" width="38" height="38" viewBox="0 0 38 38" fill="none"><path d="M16.588 25.7305L25.2995 20.1345C25.7275 19.8629 25.9415 19.4853 25.9415 19.002C25.9415 18.5187 25.7275 18.1398 25.2995 17.8655L16.588 12.2695C16.1394 11.9618 15.679 11.9372 15.207 12.1955C14.7354 12.4538 14.4995 12.8567 14.4995 13.404V24.596C14.4995 25.1434 14.7354 25.5462 15.207 25.8045C15.679 26.0629 16.1394 26.0382 16.588 25.7305ZM19.003 38C16.375 38 13.9049 37.5014 11.5925 36.504C9.28019 35.5067 7.26885 34.1532 5.55852 32.4435C3.84818 30.7339 2.49401 28.7234 1.49601 26.412C0.498345 24.1007 -0.000488281 21.6312 -0.000488281 19.0035C-0.000488281 16.3755 0.498179 13.9053 1.49551 11.593C2.49285 9.28067 3.84635 7.26934 5.55602 5.559C7.26568 3.84867 9.27619 2.4945 11.5875 1.4965C13.8989 0.498833 16.3684 0 18.996 0C21.624 0 24.0942 0.498666 26.4065 1.496C28.7189 2.49333 30.7302 3.84684 32.4405 5.5565C34.1509 7.26617 35.505 9.27668 36.503 11.588C37.5007 13.8993 37.9995 16.3688 37.9995 18.9965C37.9995 21.6245 37.5009 24.0947 36.5035 26.407C35.5062 28.7194 34.1527 30.7307 32.443 32.441C30.7334 34.1514 28.7229 35.5055 26.4115 36.5035C24.1002 37.5012 21.6307 38 19.003 38Z" fill="#C9005C"></path></svg>